# xmcd CD database file
#
# Track frame offsets:
#	150
#	15176
#	31575
#	47748
#	67876
#	86981
#	105823
#	126431
#	144293
#	161242
#	175492
#	194463
#	215410
#	240143
#
# Disc length: 3401 seconds
#
# Revision: 1
# Processed by: cddbd v1.4PL0 Copyright (c) Steve Scherf et al.
# Submitted via: CDex 1.40Beta9
#
DISCID=af0d470e
DTITLE=George Leach - Just Where I'm At
DYEAR=2000
DGENRE=Blues
TTITLE0=Young Enough
TTITLE1=Sand in the Wind
TTITLE2=Semiah
TTITLE3=Just Where I'm At
TTITLE4=Indian Blues
TTITLE5=On My Mind
TTITLE6=Making Love
TTITLE7=Cross Roads
TTITLE8=Indian Time
TTITLE9=Both Sides
TTITLE10=I Miss U
TTITLE11=Dizzy Dog
TTITLE12=Take Your Time
TTITLE13=I Found Out Today
EXTD=YEAR: 2000 ID3G: 0
EXTT0=
EXTT1=
EXTT2=
EXTT3=
EXTT4=
EXTT5=
EXTT6=
EXTT7=
EXTT8=
EXTT9=
EXTT10=
EXTT11=
EXTT12=
EXTT13=
PLAYORDER=
